# xmcd
#
# Track frame offsets:
#	150
#	12237
#	25294
#	38242
#	52746
#	66163
#	83457
#	98646
#	111207
#	123406
#	135784
#	148169
#	161408
#	172513
#	185892
#	200750
#	219098
#	230676
#	241402
#	254336
#	266078
#	279879
#	292041
#	306966
#	320323
#	337938
#
# Disc length: 4703 seconds
#
# Revision: 0
# Processed by: cddbd v1.5.2PL0 Copyright (c) Steve Scherf et al.
# Submitted via: audiograbber 1.83.01
#
DISCID=68125d1a
DTITLE=Various Artist - Now That's What I Call Classic Soul  Disc 2
DYEAR=2017
DGENRE=Classic Soul
TTITLE0=Otis Redding  - ( Sittin' On ) The Dock Of The Bay
TTITLE1=Ben E. King - Stand By Me
TTITLE2=The Temptations - My Girl
TTITLE3=Al Green - Let's Stay Together
TTITLE4=Etta James - At Last
TTITLE5=Marvin Gaye - What's Going On
TTITLE6=Michael Jackson - Got To Be There
TTITLE7=Stevie Wonder - For Once In My Life
TTITLE8=The Four Tops - I Can't Help Myself ( Sugar Pie Honey Bunch ) 
TTITLE9=The Supremes - You Can't Hurry Love
TTITLE10=Martha Reeves and The Vandellas - Heatwave
TTITLE11=Jackson 5 - ABC
TTITLE12=The Marvelettes - Please Mr Postman
TTITLE13=Smokey Robinson and The Miracles - The Tracks Of My Tears
TTITLE14=Edwin Starr - War
TTITLE15=The Temptations - Ball Of Confusion ( That's What The World Is Today )
TTITLE16=Barrett Strong - Money ( That's What I Want )
TTITLE17=R.Dean Taylor - There's A Ghost In My House
TTITLE18=Freda Payne - Band Of Gold
TTITLE19=Inez and Charlie Foxx - Mocking Bird
TTITLE20=Sly and The Family Stone - Family Affair
TTITLE21=The Supremes - You Keep Me Hangin ' On
TTITLE22=Frankie Valli and The Four Seasons - The Night
TTITLE23=The O'Jays - Love Train
TTITLE24=Labelle feat Patti Labelle - Lady Marmalade
TTITLE25=Isaac Hayes - Theme From Shaft
EXTD=
EXTT0=
EXTT1=
EXTT2=
EXTT3=
EXTT4=
EXTT5=
EXTT6=
EXTT7=
EXTT8=
EXTT9=
EXTT10=
EXTT11=
EXTT12=
EXTT13=
EXTT14=
EXTT15=
EXTT16=
EXTT17=
EXTT18=
EXTT19=
EXTT20=
EXTT21=
EXTT22=
EXTT23=
EXTT24=
EXTT25=
PLAYORDER=
